<svg xmlns="http://www.w3.org/2000/svg" width="2400" height="1500" viewBox="0 0 2400 1500" role="img" aria-labelledby="title desc">
  <title id="title">CUTLASS dense gemm fp8 gelu persistent warp-specialization timeline</title>
  <desc id="desc">Warp and warp-group role timeline plus SMEM and TMEM partition for CUTLASS examples/python/CuTeDSL/cute/hopper/kernel/dense_gemm/dense_gemm_fp8_gelu_persistent.py. Focus: persistent Hopper GEMM with fused GELU epilogue.</desc>
  <defs>
    <style>
      text { font-family: Inter, ui-sans-serif, system-ui, -apple-system, BlinkMacSystemFont, "Segoe UI", sans-serif; fill: #172734; }
      .title { font-size: 42px; font-weight: 780; } .subtitle { font-size: 20px; fill: #425869; }
      .source { font-family: ui-monospace, SFMono-Regular, Menlo, Consolas, monospace; font-size: 16px; fill: #526a79; }
      .panel { font-size: 18px; font-weight: 790; fill: #526a79; letter-spacing: 1.2px; }
      .phase { font-size: 15px; font-weight: 720; text-anchor: middle; fill: #607887; letter-spacing: .7px; }
      .role { font-size: 20px; font-weight: 750; } .role-note { font-size: 16px; fill: #526a79; }
      .box { font-size: 18px; font-weight: 700; text-anchor: middle; dominant-baseline: middle; }
      .node, .mem { stroke: #294251; stroke-width: 1.6; } .grid { stroke: #dce6ec; stroke-width: 1.2; }
      .arrow { fill: none; stroke: #526d7c; stroke-width: 2.3; marker-end: url(#arrow); }
      .handoff { fill: none; stroke: #b87912; stroke-width: 2.2; stroke-dasharray: 7 5; marker-end: url(#gold); }
      .memory-label { font-size: 19px; font-weight: 770; } .mem-name { font-size: 18px; font-weight: 740; text-anchor: middle; }
      .mem-note { font-size: 15px; fill: #526a79; text-anchor: middle; } .note { font-size: 17px; font-weight: 650; fill: #704b09; }
    </style>
    <marker id="arrow" viewBox="0 0 10 10" refX="8.5" refY="5" markerWidth="7" markerHeight="7" orient="auto"><path d="M0 0L10 5L0 10Z" fill="#526d7c"/></marker>
    <marker id="gold" viewBox="0 0 10 10" refX="8.5" refY="5" markerWidth="7" markerHeight="7" orient="auto"><path d="M0 0L10 5L0 10Z" fill="#b87912"/></marker>
  </defs>
  <rect width="2400" height="1500" fill="#f8fafb"/>
  <text class="title" x="70" y="66">CUTLASS · dense gemm fp8 gelu persistent</text>
  <text class="subtitle" x="70" y="108">Hopper / SM90 · representative steady-state role ownership and memory handoffs</text>
  <text class="source" x="70" y="145">examples/python/CuTeDSL/cute/hopper/kernel/dense_gemm/dense_gemm_fp8_gelu_persistent.py · audited at 2802e228</text>
  <text class="panel" x="70" y="198">WARP / WARP-GROUP ROLE TIMELINE</text>
  <rect x="60" y="220" width="2280" height="770" rx="12" fill="#fff" stroke="#d4e0e7" stroke-width="1.5"/>
  <line class="grid" x1="490" y1="220" x2="490" y2="990"/>
  <line class="grid" x1="60" y1="460" x2="2340" y2="460"/><line class="grid" x1="60" y1="650" x2="2340" y2="650"/><line class="grid" x1="60" y1="840" x2="2340" y2="840"/>
  <text class="phase" x="710" y="276">ASSIGN / ACQUIRE</text><text class="phase" x="1160" y="276">LOAD / ISSUE</text><text class="phase" x="1610" y="276">CONSUME / HANDOFF</text><text class="phase" x="2060" y="276">PUBLISH / ADVANCE</text>
  <text class="role" x="94" y="334">Producer warp-group</text><text class="role-note" x="94" y="363">elected TMA issuing warp</text><rect class="node" x="535" y="300" width="350" height="88" rx="12" fill="#d7e8f2"/><text class="box" x="710" y="349">obtain work tile</text><rect class="node" x="985" y="300" width="350" height="88" rx="12" fill="#d7e8f2"/><text class="box" x="1160" y="349">acquire A/B stage</text><path class="arrow" d="M885 344 H982"/><rect class="node" x="1435" y="300" width="350" height="88" rx="12" fill="#d7e8f2"/><text class="box" x="1610" y="349">TMA A/B multicast</text><path class="arrow" d="M1335 344 H1432"/><rect class="node" x="1885" y="300" width="350" height="88" rx="12" fill="#d7e8f2"/><text class="box" x="2060" y="349">commit + prefetch</text><path class="arrow" d="M1785 344 H1882"/><text class="role" x="94" y="524">Consumer WG0</text><text class="role-note" x="94" y="553">WGMMA + epilogue</text><rect class="node" x="535" y="490" width="350" height="88" rx="12" fill="#cfe9df"/><text class="box" x="710" y="539">wait operands</text><rect class="node" x="985" y="490" width="350" height="88" rx="12" fill="#cfe9df"/><text class="box" x="1160" y="539">issue WGMMA groups</text><path class="arrow" d="M885 534 H982"/><rect class="node" x="1435" y="490" width="350" height="88" rx="12" fill="#cfe9df"/><text class="box" x="1610" y="539">visit accumulators</text><path class="arrow" d="M1335 534 H1432"/><rect class="node" x="1885" y="490" width="350" height="88" rx="12" fill="#cfe9df"/><text class="box" x="2060" y="539">stage / store D</text><path class="arrow" d="M1785 534 H1882"/><text class="role" x="94" y="714">Consumer WG1</text><text class="role-note" x="94" y="743">ping-pong when selected</text><rect class="node" x="535" y="680" width="350" height="88" rx="12" fill="#b9dfd3"/><text class="box" x="710" y="729">wait scheduler token</text><rect class="node" x="985" y="680" width="350" height="88" rx="12" fill="#b9dfd3"/><text class="box" x="1160" y="729">issue next tile MMA</text><path class="arrow" d="M885 724 H982"/><rect class="node" x="1435" y="680" width="350" height="88" rx="12" fill="#b9dfd3"/><text class="box" x="1610" y="729">handoff token</text><path class="arrow" d="M1335 724 H1432"/><rect class="node" x="1885" y="680" width="350" height="88" rx="12" fill="#b9dfd3"/><text class="box" x="2060" y="729">advance tile</text><path class="arrow" d="M1785 724 H1882"/><text class="role" x="94" y="904">Scheduler / auxiliary</text><text class="role-note" x="94" y="933">grouped or fused work</text><rect class="node" x="535" y="870" width="350" height="88" rx="12" fill="#f2d394"/><text class="box" x="710" y="919">decode metadata</text><rect class="node" x="985" y="870" width="350" height="88" rx="12" fill="#f2d394"/><text class="box" x="1160" y="919">prefetch / gather</text><path class="arrow" d="M885 914 H982"/><rect class="node" x="1435" y="870" width="350" height="88" rx="12" fill="#f2d394"/><text class="box" x="1610" y="919">fused output work</text><path class="arrow" d="M1335 914 H1432"/><rect class="node" x="1885" y="870" width="350" height="88" rx="12" fill="#f2d394"/><text class="box" x="2060" y="919">retire persistent tile</text><path class="arrow" d="M1785 914 H1882"/><path class="handoff" d="M710 388 V487"/><path class="handoff" d="M1160 578 V677"/><path class="handoff" d="M1610 768 V867"/>
  <text class="panel" x="70" y="1040">ON-CHIP MEMORY PARTITION</text>
  <rect x="60" y="1065" width="2280" height="310" rx="12" fill="#fff" stroke="#d4e0e7" stroke-width="1.5"/>
  <text class="memory-label" x="90" y="1120">SMEM</text>
  <rect class="mem" x="235.0" y="1087" width="501.75" height="92" rx="12" fill="#d7e8f2"/><text class="mem-name" x="485.875" y="1124">A stage ring</text><text class="mem-note" x="485.875" y="1153">TMA → WGMMA</text><rect class="mem" x="752.75" y="1087" width="501.75" height="92" rx="12" fill="#d7e8f2"/><text class="mem-name" x="1003.625" y="1124">B stage ring</text><text class="mem-note" x="1003.625" y="1153">TMA → WGMMA</text><rect class="mem" x="1270.5" y="1087" width="501.75" height="92" rx="12" fill="#d7e8f2"/><text class="mem-name" x="1521.375" y="1124">metadata / scales</text><text class="mem-note" x="1521.375" y="1153">variant-dependent</text><rect class="mem" x="1788.25" y="1087" width="501.75" height="92" rx="12" fill="#d7e8f2"/><text class="mem-name" x="2039.125" y="1124">D epilogue stages</text><text class="mem-note" x="2039.125" y="1153">TMA store</text>
  <text class="memory-label" x="90" y="1256">TMEM</text>
  <rect class="mem" x="235.0" y="1223" width="2055.0" height="92" rx="12" fill="#cfe9df"/><text class="mem-name" x="1262.5" y="1260">not available on SM90</text><text class="mem-note" x="1262.5" y="1289">accumulators remain in registers</text>
  <rect x="70" y="1405" width="2260" height="62" rx="11" fill="#fff7df" stroke="#b87912" stroke-width="1.5"/>
  <text class="note" x="100" y="1443">Example focus: persistent Hopper GEMM with fused GELU epilogue. Exact IDs, stage counts, and extents remain configuration-dependent.</text>
</svg>
